<svg width="1677" height="1260" viewBox="0 0 1677 1260" fill="none" xmlns="http://www.w3.org/2000/svg">
<mask id="mask0" mask-type="alpha" maskUnits="userSpaceOnUse" x="0" y="0" width="1677" height="1260">
<rect width="1677" height="1260" fill="#D7DAE3"/>
</mask>
<g mask="url(#mask0)">
<g filter="url(#filter0_f)">
<path d="M996.433 671.285C996.433 787.235 902.437 881.231 786.487 881.231C670.537 881.231 576.541 787.235 576.541 671.285C576.541 555.335 670.537 461.339 786.487 461.339C902.437 461.339 996.433 555.335 996.433 671.285Z" fill="#7876B6"/>
<path d="M1081.95 455.326C1081.95 506.798 1123.67 548.524 1175.15 548.524C1226.62 548.524 1268.34 506.798 1268.34 455.326C1268.34 403.855 1226.62 362.128 1175.15 362.128C1123.67 362.128 1081.95 403.855 1081.95 455.326Z" fill="#7876B6"/>
<path d="M837.763 299.662C837.763 351.134 879.489 392.86 930.961 392.86C982.433 392.86 1024.16 351.134 1024.16 299.662C1024.16 248.19 982.433 206.464 930.961 206.464C879.489 206.464 837.763 248.19 837.763 299.662Z" fill="#7876B6"/>
</g>
</g>
<defs>
<filter id="filter0_f" x="276.541" y="-93.5358" width="1291.8" height="1274.77" filterUnits="userSpaceOnUse" color-interpolation-filters="sRGB">
<feFlood flood-opacity="0" result="BackgroundImageFix"/>
<feBlend mode="normal" in="SourceGraphic" in2="BackgroundImageFix" result="shape"/>
<feGaussianBlur stdDeviation="150" result="effect1_foregroundBlur"/>
</filter>
</defs>
</svg>
