<svg width="32" height="32" viewBox="0 0 32 32" fill="none" xmlns="http://www.w3.org/2000/svg">
<path d="M4 12.7417C4 13.8248 4.88046 14.706 5.96273 14.706H12.8556V10.7773H5.96273C4.88046 10.7773 4 11.6585 4 12.7417Z" fill="url(#paint0_linear_458_5608)"/>
<path d="M25.9358 10.7773H19.043V14.706H25.9358C27.018 14.706 27.8985 13.8248 27.8985 12.7417C27.8985 11.6585 27.018 10.7773 25.9358 10.7773Z" fill="url(#paint1_linear_458_5608)"/>
<path d="M6.58203 26.0353C6.58203 27.1185 7.46249 27.9997 8.54471 27.9997H12.8551V15.8379H6.58203V26.0353Z" fill="url(#paint2_linear_458_5608)"/>
<path d="M19.043 27.9997H23.3533C24.4355 27.9997 25.3161 27.1184 25.3161 26.0353V15.8379H19.043V27.9997Z" fill="url(#paint3_linear_458_5608)"/>
<path d="M21.7001 4.75873C20.6868 3.74709 19.038 3.74709 18.0246 4.75873C17.3618 5.42041 16.8696 7.68861 16.6133 9.66383H17.9211C20.6766 9.19814 21.4814 8.64224 21.7 8.42399C22.7016 7.4242 22.7016 5.75846 21.7001 4.75873Z" fill="url(#paint4_linear_458_5608)"/>
<path d="M13.8719 4.75876C12.8585 3.74703 11.2098 3.74713 10.1965 4.75876C9.19493 5.75855 9.19493 7.42424 10.1965 8.42397C10.4151 8.64228 11.2199 9.19817 13.9755 9.66381H15.2832C15.027 7.68859 14.5347 5.42045 13.8719 4.75876Z" fill="url(#paint5_linear_458_5608)"/>
<path d="M13.9883 10.7959H17.9136V27.9998H13.9883V10.7959Z" fill="url(#paint6_linear_458_5608)"/>
<defs>
<linearGradient id="paint0_linear_458_5608" x1="4" y1="12.7417" x2="12.8556" y2="12.7417" gradientUnits="userSpaceOnUse">
<stop stop-color="#54ADDA"/>
<stop offset="1" stop-color="#7876B6"/>
</linearGradient>
<linearGradient id="paint1_linear_458_5608" x1="19.043" y1="12.7417" x2="27.8985" y2="12.7417" gradientUnits="userSpaceOnUse">
<stop stop-color="#54ADDA"/>
<stop offset="1" stop-color="#7876B6"/>
</linearGradient>
<linearGradient id="paint2_linear_458_5608" x1="6.58203" y1="21.9188" x2="12.8551" y2="21.9188" gradientUnits="userSpaceOnUse">
<stop stop-color="#54ADDA"/>
<stop offset="1" stop-color="#7876B6"/>
</linearGradient>
<linearGradient id="paint3_linear_458_5608" x1="19.043" y1="21.9188" x2="25.3161" y2="21.9188" gradientUnits="userSpaceOnUse">
<stop stop-color="#54ADDA"/>
<stop offset="1" stop-color="#7876B6"/>
</linearGradient>
<linearGradient id="paint4_linear_458_5608" x1="16.6133" y1="6.83192" x2="22.4512" y2="6.83192" gradientUnits="userSpaceOnUse">
<stop stop-color="#54ADDA"/>
<stop offset="1" stop-color="#7876B6"/>
</linearGradient>
<linearGradient id="paint5_linear_458_5608" x1="9.44531" y1="6.83192" x2="15.2832" y2="6.83192" gradientUnits="userSpaceOnUse">
<stop stop-color="#54ADDA"/>
<stop offset="1" stop-color="#7876B6"/>
</linearGradient>
<linearGradient id="paint6_linear_458_5608" x1="13.9883" y1="19.3979" x2="17.9136" y2="19.3979" gradientUnits="userSpaceOnUse">
<stop stop-color="#54ADDA"/>
<stop offset="1" stop-color="#7876B6"/>
</linearGradient>
</defs>
</svg>
