<!-- Generator: Adobe Illustrator 19.0.1, SVG Export Plug-In  -->
<svg version="1.1"
	 xmlns="http://www.w3.org/2000/svg" xmlns:xlink="http://www.w3.org/1999/xlink" xmlns:a="http://ns.adobe.com/AdobeSVGViewerExtensions/3.0/"
	 x="0px" y="0px" width="264.8px" height="65.2px" viewBox="0 0 264.8 65.2"
	 style="overflow:scroll;enable-background:new 0 0 264.8 65.2;" xml:space="preserve">
<style type="text/css">
	.st0{clip-path:url(#SVGID_2_);fill:url(#SVGID_3_);}
	.st1{clip-path:url(#SVGID_5_);fill:url(#SVGID_6_);}
	.st2{clip-path:url(#SVGID_8_);fill:#fff;}
	.st3{clip-path:url(#SVGID_10_);fill:url(#SVGID_11_);}
	.st4{clip-path:url(#SVGID_13_);fill:url(#SVGID_14_);}
	.st5{clip-path:url(#SVGID_16_);fill:#171819;}
</style>
<defs>
</defs>
<g>
	<defs>
		<polygon id="SVGID_1_" points="233,0 233,10.3 256.8,24.6 233,38.7 233,49 264.8,29.3 264.8,19.7 		"/>
	</defs>
	<clipPath id="SVGID_2_">
		<use xlink:href="#SVGID_1_"  style="overflow:visible;"/>
	</clipPath>

		<linearGradient id="SVGID_3_" gradientUnits="userSpaceOnUse" x1="-6.238675e-006" y1="65.187" x2="1" y2="65.187" gradientTransform="matrix(31.7959 0 0 -31.7959 232.9982 2097.1719)">
		<stop  offset="0" style="stop-color:#7654F8"/>
		<stop  offset="1" style="stop-color:#75C0EE"/>
	</linearGradient>
	<rect x="233" class="st0" width="31.8" height="49"/>
</g>
<g>
	<defs>
		<polygon id="SVGID_4_" points="33.2,0 0,19.7 0,29.3 33.2,49 33.2,38.7 8.4,24.4 33.2,10.2 		"/>
	</defs>
	<clipPath id="SVGID_5_">
		<use xlink:href="#SVGID_4_"  style="overflow:visible;"/>
	</clipPath>

		<linearGradient id="SVGID_6_" gradientUnits="userSpaceOnUse" x1="0" y1="65.187" x2="1" y2="65.187" gradientTransform="matrix(33.2029 0 0 -33.2029 0 2188.8899)">
		<stop  offset="0" style="stop-color:#7654F8"/>
		<stop  offset="1" style="stop-color:#75C0EE"/>
	</linearGradient>
	<rect y="0" class="st1" width="33.2" height="49"/>
</g>
<g>
	<defs>
		<rect id="SVGID_7_" width="264.8" height="65.2"/>
	</defs>
	<clipPath id="SVGID_8_">
		<use xlink:href="#SVGID_7_"  style="overflow:visible;"/>
	</clipPath>
	<path class="st2" d="M55.8,3.9h10.5v31.5c7.4-10.5,14.8-21,22.3-31.5h10.2v47H88.4V19.6L66,50.9H55.8V3.9z"/>
	<path class="st2" d="M139,2.9c-7.6,0-12.5,3.9-16,8.8V3.9h-10.8v61.3h10.8V43.6c3.3,4.4,8.2,8.3,16,8.3c11.2,0,21.9-8.8,21.9-24.4
		C161,11.7,150.2,2.9,139,2.9 M136.5,42.6c-7.3,0-13.7-6-13.7-15.1c0-9.2,6.4-15.2,13.7-15.2c7.3,0,13.4,6,13.4,15.1
		C150,36.8,143.9,42.6,136.5,42.6"/>
	<path class="st2" d="M169.4,27.7v-0.2c0-13.4,10.3-24.6,24.4-24.6c8.9,0,14.4,3.3,18.8,8.1l-6.7,7.2c-3.3-3.5-6.8-5.9-12.2-5.9
		c-7.8,0-13.5,6.8-13.5,15v0.2c0,8.4,5.8,15.1,14.1,15.1c5.1,0,8.8-2.4,12.2-5.9l6.5,6.4c-4.6,5.2-10.1,8.8-19.2,8.8
		C179.7,52,169.4,41,169.4,27.7"/>
</g>
</svg>
